<svg xmlns="http://www.w3.org/2000/svg" width="80" height="100" viewBox="0 0 80 100">
  <!-- Main hull -->
  <defs>
    <linearGradient id="hullGradient" x1="0%" y1="0%" x2="0%" y2="100%">
      <stop offset="0%" style="stop-color:#00d4ff;stop-opacity:1" />
      <stop offset="50%" style="stop-color:#0099cc;stop-opacity:1" />
      <stop offset="100%" style="stop-color:#006699;stop-opacity:1" />
    </linearGradient>
    <filter id="glow">
      <feGaussianBlur stdDeviation="3" result="coloredBlur"/>
      <feMerge>
        <feMergeNode in="coloredBlur"/>
        <feMergeNode in="SourceGraphic"/>
      </feMerge>
    </filter>
  </defs>
  
  <!-- Ship body -->
  <path d="M 40 10 L 60 70 L 55 80 L 40 90 L 25 80 L 20 70 Z" 
        fill="url(#hullGradient)" 
        stroke="#00f0ff" 
        stroke-width="2" 
        filter="url(#glow)"/>
  
  <!-- Cockpit -->
  <ellipse cx="40" cy="35" rx="8" ry="12" fill="#4dffff" opacity="0.7"/>
  
  <!-- Wings -->
  <path d="M 30 50 L 10 60 L 15 70 L 25 65 Z" 
        fill="#0088aa" 
        stroke="#00ccee" 
        stroke-width="1.5"/>
  <path d="M 50 50 L 70 60 L 65 70 L 55 65 Z" 
        fill="#0088aa" 
        stroke="#00ccee" 
        stroke-width="1.5"/>
  
  <!-- Engine exhausts -->
  <rect x="32" y="82" width="6" height="8" rx="2" fill="#ff6600" opacity="0.8"/>
  <rect x="42" y="82" width="6" height="8" rx="2" fill="#ff6600" opacity="0.8"/>
  
  <!-- Detail lines -->
  <line x1="40" y1="25" x2="40" y2="75" stroke="#003344" stroke-width="1.5" opacity="0.5"/>
  <line x1="30" y1="40" x2="50" y2="40" stroke="#003344" stroke-width="1" opacity="0.5"/>
  <line x1="28" y1="55" x2="52" y2="55" stroke="#003344" stroke-width="1" opacity="0.5"/>
</svg>
